<svg xmlns="http://www.w3.org/2000/svg" viewBox="0 0 512 512" width="512" height="512">
  <!-- Sky background gradient -->
  <defs>
    <linearGradient id="skyGradient" x1="0%" y1="0%" x2="0%" y2="100%">
      <stop offset="0%" style="stop-color:#87CEEB;stop-opacity:1" />
      <stop offset="100%" style="stop-color:#E0F6FF;stop-opacity:1" />
    </linearGradient>
    <!-- Wind pattern -->
    <pattern id="windPattern" x="0" y="0" width="40" height="40" patternUnits="userSpaceOnUse">
      <path d="M0,20 Q10,15 20,20 T40,20" stroke="#B0E0E6" stroke-width="2" fill="none" opacity="0.5"/>
    </pattern>
  </defs>
  
  <!-- Background circle -->
  <circle cx="256" cy="256" r="250" fill="url(#skyGradient)" stroke="#4682B4" stroke-width="12"/>
  
  <!-- Wind indicators -->
  <rect x="6" y="6" width="500" height="500" fill="url(#windPattern)" opacity="0.3"/>
  
  <!-- Airplane path -->
  <path d="M100,120 L412,120" stroke="#333" stroke-width="8" stroke-dasharray="20,10" opacity="0.7"/>
  
  <!-- Airplane -->
  <g transform="translate(380,120)">
    <path d="M0,0 L-40,0 L-45,-15 L-40,-10 L-10,-10 L-10,-20 L0,-15 L0,-5 L10,-5 L10,5 L0,5 L0,15 L-10,20 L-10,10 L-40,10 L-45,15 L-40,0" 
          fill="#333" stroke="#222" stroke-width="2"/>
  </g>
  
  <!-- Exit points -->
  <circle cx="180" cy="120" r="12" fill="#FF6B6B" stroke="#CC0000" stroke-width="3"/>
  <circle cx="256" cy="120" r="12" fill="#FF6B6B" stroke="#CC0000" stroke-width="3"/>
  <circle cx="332" cy="120" r="12" fill="#FF6B6B" stroke="#CC0000" stroke-width="3"/>
  
  <!-- Skydivers with parachutes -->
  <g transform="translate(180,220)">
    <!-- Parachute -->
    <path d="M0,-20 Q-20,-30 -25,-15 Q-20,-10 0,-10 Q20,-10 25,-15 Q20,-30 0,-20" 
          fill="#4ECDC4" stroke="#45B7B8" stroke-width="2"/>
    <!-- Lines -->
    <line x1="-20" y1="-15" x2="-5" y2="10" stroke="#333" stroke-width="2"/>
    <line x1="20" y1="-15" x2="5" y2="10" stroke="#333" stroke-width="2"/>
    <!-- Skydiver -->
    <circle cx="0" cy="15" r="5" fill="#333"/>
    <path d="M0,20 L-5,35 M0,20 L5,35 M0,20 L0,30 M-3,25 L-8,28 M3,25 L8,28" 
          stroke="#333" stroke-width="2" stroke-linecap="round"/>
  </g>
  
  <g transform="translate(256,280)">
    <!-- Parachute -->
    <path d="M0,-20 Q-20,-30 -25,-15 Q-20,-10 0,-10 Q20,-10 25,-15 Q20,-30 0,-20" 
          fill="#4ECDC4" stroke="#45B7B8" stroke-width="2"/>
    <!-- Lines -->
    <line x1="-20" y1="-15" x2="-5" y2="10" stroke="#333" stroke-width="2"/>
    <line x1="20" y1="-15" x2="5" y2="10" stroke="#333" stroke-width="2"/>
    <!-- Skydiver -->
    <circle cx="0" cy="15" r="5" fill="#333"/>
    <path d="M0,20 L-5,35 M0,20 L5,35 M0,20 L0,30 M-3,25 L-8,28 M3,25 L8,28" 
          stroke="#333" stroke-width="2" stroke-linecap="round"/>
  </g>
  
  <g transform="translate(332,240)">
    <!-- Parachute -->
    <path d="M0,-20 Q-20,-30 -25,-15 Q-20,-10 0,-10 Q20,-10 25,-15 Q20,-30 0,-20" 
          fill="#4ECDC4" stroke="#45B7B8" stroke-width="2"/>
    <!-- Lines -->
    <line x1="-20" y1="-15" x2="-5" y2="10" stroke="#333" stroke-width="2"/>
    <line x1="20" y1="-15" x2="5" y2="10" stroke="#333" stroke-width="2"/>
    <!-- Skydiver -->
    <circle cx="0" cy="15" r="5" fill="#333"/>
    <path d="M0,20 L-5,35 M0,20 L5,35 M0,20 L0,30 M-3,25 L-8,28 M3,25 L8,28" 
          stroke="#333" stroke-width="2" stroke-linecap="round"/>
  </g>
  
  <!-- Landing zone target -->
  <g transform="translate(256,400)">
    <circle cx="0" cy="0" r="35" fill="none" stroke="#FF6B6B" stroke-width="4"/>
    <circle cx="0" cy="0" r="25" fill="none" stroke="#FF6B6B" stroke-width="3"/>
    <circle cx="0" cy="0" r="15" fill="none" stroke="#FF6B6B" stroke-width="3"/>
    <circle cx="0" cy="0" r="5" fill="#FF6B6B"/>
    <!-- Cross hair -->
    <line x1="-40" y1="0" x2="-35" y2="0" stroke="#FF6B6B" stroke-width="3"/>
    <line x1="35" y1="0" x2="40" y2="0" stroke="#FF6B6B" stroke-width="3"/>
    <line x1="0" y1="-40" x2="0" y2="-35" stroke="#FF6B6B" stroke-width="3"/>
    <line x1="0" y1="35" x2="0" y2="40" stroke="#FF6B6B" stroke-width="3"/>
  </g>
  
  <!-- Drift lines showing wind effect -->
  <path d="M180,120 Q170,200 200,300 Q230,380 256,400" 
        stroke="#666" stroke-width="2" stroke-dasharray="5,5" fill="none" opacity="0.5"/>
  <path d="M256,120 Q256,200 256,300 Q256,380 256,400" 
        stroke="#666" stroke-width="2" stroke-dasharray="5,5" fill="none" opacity="0.5"/>
  <path d="M332,120 Q342,200 312,300 Q282,380 256,400" 
        stroke="#666" stroke-width="2" stroke-dasharray="5,5" fill="none" opacity="0.5"/>
</svg>